<?xml version="1.0" encoding="UTF-8"?>
<svg width="140px" height="36px" viewBox="0 0 140 36" version="1.1" xmlns="http://www.w3.org/2000/svg" xmlns:xlink="http://www.w3.org/1999/xlink">
    <!-- Generator: Sketch 50.2 (55047) - http://www.bohemiancoding.com/sketch -->
    <title>Logo-Dark-Version</title>
    <desc>Created with Sketch.</desc>
    <defs></defs>
    <g id="Page-1" stroke="none" stroke-width="1" fill="none" fill-rule="evenodd">
        <g id="Logo-prismic" transform="translate(-177.000000, -287.000000)" fill="#fff">
            <path d="M212.538472,305.740901 L209.882862,303.079505 C209.672342,302.868526 209.554073,302.582378 209.554073,302.28401 L209.554073,299.028113 C209.554073,296.019237 209.241468,294.928146 208.654461,293.828146 C208.067453,292.728146 207.206043,291.864859 206.108435,291.276573 C205.010826,290.688286 203.922107,290.375 200.919773,290.375 L196.62544,290.375 C196.501446,290.375 196.400929,290.274264 196.400929,290.15 C196.400929,290.090326 196.424582,290.033097 196.466686,289.990901 L199.122297,287.329505 C199.332816,287.118526 199.618342,287 199.916062,287 L201.409335,287 C205.412448,287 206.864073,287.417715 208.327551,288.202097 C209.79103,288.986479 210.939576,290.137528 211.722252,291.604194 C212.504929,293.070861 212.921736,294.525649 212.921736,298.537483 L212.921736,305.581802 C212.921736,305.706066 212.821219,305.806802 212.697225,305.806802 C212.637681,305.806802 212.580576,305.783097 212.538472,305.740901 Z M194.221578,322.615901 L196.877188,319.954505 C197.087708,319.743526 197.373234,319.625 197.670954,319.625 L200.919773,319.625 C203.922107,319.625 205.010826,319.311714 206.108435,318.723427 C207.206043,318.135141 208.067453,317.271854 208.654461,316.171854 C209.241468,315.071854 209.554073,313.980763 209.554073,310.971887 L209.554073,306.668198 C209.554073,306.543934 209.65459,306.443198 209.778584,306.443198 C209.838128,306.443198 209.895234,306.466903 209.937337,306.509099 L212.592948,309.170495 C212.803467,309.381474 212.921736,309.667622 212.921736,309.96599 L212.921736,311.462517 C212.921736,315.474351 212.504929,316.929139 211.722252,318.395806 C210.939576,319.862472 209.79103,321.013521 208.327551,321.797903 C206.864073,322.582285 205.412448,323 201.409335,323 L194.380331,323 C194.256337,323 194.15582,322.899264 194.15582,322.775 C194.15582,322.715326 194.179474,322.658097 194.221578,322.615901 Z M177.383264,304.259099 L180.038874,306.920495 C180.249394,307.131474 180.367663,307.417622 180.367663,307.71599 L180.367663,310.971887 C180.367663,313.980763 180.680268,315.071854 181.267276,316.171854 C181.854283,317.271854 182.715693,318.135141 183.813301,318.723427 C184.91091,319.311714 185.999629,319.625 189.001964,319.625 L193.296297,319.625 C193.420291,319.625 193.520808,319.725736 193.520808,319.85 C193.520808,319.909674 193.497154,319.966903 193.45505,320.009099 L190.79944,322.670495 C190.58892,322.881474 190.303394,323 190.005674,323 L188.512401,323 C184.509288,323 183.057663,322.582285 181.594185,321.797903 C180.130707,321.013521 178.98216,319.862472 178.199484,318.395806 C177.416807,316.929139 177,315.474351 177,311.462517 L177,304.418198 C177,304.293934 177.100517,304.193198 177.224511,304.193198 C177.284055,304.193198 177.34116,304.216903 177.383264,304.259099 Z M193.044548,290.045495 C192.834028,290.256474 192.548502,290.375 192.250782,290.375 L189.001964,290.375 C185.999629,290.375 184.91091,290.688286 183.813301,291.276573 C182.715693,291.864859 181.854283,292.728146 181.267276,293.828146 C180.680268,294.928146 180.367663,296.019237 180.367663,299.028113 L180.367663,303.331802 C180.367663,303.456066 180.267146,303.556802 180.143152,303.556802 C180.083608,303.556802 180.026503,303.533097 179.984399,303.490901 L177.328789,300.829505 C177.118269,300.618526 177,300.332378 177,300.03401 L177,298.537483 C177,294.525649 177.416807,293.070861 178.199484,291.604194 C178.98216,290.137528 180.130707,288.986479 181.594185,288.202097 C183.057663,287.417715 184.509288,287 188.512401,287 L195.541405,287 C195.665399,287 195.765916,287.100736 195.765916,287.225 C195.765916,287.284674 195.742262,287.341903 195.700158,287.384099 L193.044548,290.045495 Z M206.929335,300.136389 L203.308185,296.668036 C203.068731,296.42806 202.788644,296.253623 202.490118,296.144727 C202.24329,296.05119 201.975707,296 201.696194,296 L191.010156,296 C190.886162,296 190.785645,295.899264 190.785645,295.775 C190.785645,295.715293 190.809325,295.658035 190.85147,295.615834 L193.509583,292.95417 C193.720075,292.743397 194.005458,292.625 194.303014,292.625 L202.818748,292.625 C205.298626,292.625 207.308965,294.639719 207.308965,297.125 L207.308965,299.973729 C207.308965,300.097993 207.208448,300.198729 207.084454,300.198729 C207.026669,300.198729 206.971109,300.1764 206.929335,300.136389 Z M199.813906,316.997384 L203.274719,313.368344 C203.514173,313.128368 203.68823,312.847671 203.79689,312.548495 C203.890223,312.30113 203.941302,312.032963 203.941302,311.752841 L203.941302,301.043521 C203.941302,300.919257 204.041819,300.818521 204.165813,300.818521 C204.22539,300.818521 204.282524,300.842253 204.324633,300.884489 L206.98051,303.548394 C207.190826,303.759345 207.308965,304.045349 207.308965,304.343554 L207.308965,312.877841 C207.308965,315.363122 205.298626,317.377841 202.818748,317.377841 L199.976212,317.377841 C199.852218,317.377841 199.751701,317.277105 199.751701,317.152841 C199.751701,317.09493 199.773981,317.039249 199.813906,316.997384 Z M182.992401,309.863611 L186.613551,313.331964 C186.853006,313.57194 187.133093,313.746377 187.431618,313.855273 C187.678446,313.94881 187.946029,314 188.225543,314 L198.91158,314 C199.035574,314 199.136091,314.100736 199.136091,314.225 C199.136091,314.284707 199.112411,314.341965 199.070267,314.384166 L196.412154,317.04583 C196.201661,317.256603 195.916278,317.375 195.618722,317.375 L187.102988,317.375 C184.62311,317.375 182.612771,315.360281 182.612771,312.875 L182.612771,310.026271 C182.612771,309.902007 182.713288,309.801271 182.837282,309.801271 C182.895067,309.801271 182.950627,309.8236 182.992401,309.863611 Z M190.10783,293.005457 L186.647017,296.634496 C186.407563,296.874473 186.233506,297.15517 186.124846,297.454346 C186.031513,297.701711 185.980434,297.969878 185.980434,298.25 L185.980434,308.95932 C185.980434,309.083584 185.879917,309.18432 185.755923,309.18432 C185.696346,309.18432 185.639213,309.160588 185.597103,309.118352 L182.941226,306.454447 C182.73091,306.243496 182.612771,305.957492 182.612771,305.659287 L182.612771,297.125 C182.612771,294.639719 184.62311,292.625 187.102988,292.625 L189.945525,292.625 C190.069518,292.625 190.170035,292.725736 190.170035,292.85 C190.170035,292.907911 190.147755,292.963592 190.10783,293.005457 Z M223.21254,297.383881 L224.081495,297.383881 C224.674483,297.383881 225.155196,297.864594 225.155196,298.457582 L225.155196,299.474213 C225.155196,299.505732 225.180747,299.531283 225.212266,299.531283 C225.706881,298.656411 226.372698,298.02015 227.209738,297.622481 C228.046778,297.224812 228.950387,297.025981 229.920592,297.025981 C230.966892,297.025981 231.908548,297.219842 232.745588,297.607569 C233.582628,297.995296 234.296003,298.527171 234.885736,299.203208 C235.475469,299.879245 235.922517,300.674571 236.226896,301.58921 C236.531274,302.503849 236.683461,303.488065 236.683461,304.541888 C236.683461,305.59571 236.521762,306.579926 236.19836,307.494565 C235.874959,308.409204 235.423154,309.20453 234.842933,309.880567 C234.262712,310.556605 233.563604,311.088479 232.745588,311.476206 C231.927572,311.863934 231.033474,312.057794 230.063269,312.057794 C229.416465,312.057794 228.845765,311.988203 228.35115,311.849019 C227.856536,311.709835 227.418999,311.530887 227.038526,311.312169 C226.658053,311.093451 226.334656,310.859824 226.068325,310.61128 C225.801995,310.362737 225.583226,310.119169 225.412013,309.880567 C225.364735,309.880567 225.326407,309.918894 225.326407,309.966173 L225.326407,317.189631 C225.326407,317.913328 224.739735,318.5 224.016038,318.5 L223.21254,318.5 C222.488843,318.5 221.90217,317.913328 221.90217,317.189631 L221.90217,298.694251 C221.90217,297.970554 222.488843,297.383881 223.21254,297.383881 Z M233.259223,304.541888 C233.259223,303.985151 233.168863,303.448306 232.988138,302.931336 C232.807413,302.414366 232.541087,301.957054 232.189149,301.559385 C231.837212,301.161716 231.413943,300.843585 230.919328,300.604984 C230.424714,300.366383 229.863525,300.247084 229.235745,300.247084 C228.607965,300.247084 228.046776,300.366383 227.552162,300.604984 C227.057547,300.843585 226.634278,301.161716 226.28234,301.559385 C225.930403,301.957054 225.664076,302.414366 225.483352,302.931336 C225.302627,303.448306 225.212266,303.985151 225.212266,304.541888 C225.212266,305.098624 225.302627,305.635469 225.483352,306.152439 C225.664076,306.669409 225.930403,307.126721 226.28234,307.52439 C226.634278,307.922059 227.057547,308.24019 227.552162,308.478791 C228.046776,308.717392 228.607965,308.836691 229.235745,308.836691 C229.863525,308.836691 230.424714,308.717392 230.919328,308.478791 C231.413943,308.24019 231.837212,307.922059 232.189149,307.52439 C232.541087,307.126721 232.807413,306.669409 232.988138,306.152439 C233.168863,305.635469 233.259223,305.098624 233.259223,304.541888 Z M241.617814,297.383881 L242.598331,297.383881 C243.224263,297.383881 243.731682,297.8913 243.731682,298.517232 L243.731682,299.593513 C243.731682,299.625032 243.757233,299.650583 243.788753,299.650583 C244.169225,298.815478 244.711391,298.169276 245.415265,297.711957 C246.11914,297.254637 246.927632,297.025981 247.840767,297.025981 C248.050027,297.025981 248.254528,297.045864 248.454276,297.085631 C248.810935,297.156636 249.067788,297.469667 249.067788,297.833325 L249.067809,299.796922 C249.067809,300.191811 248.747688,300.511931 248.3528,300.511931 C248.310278,300.511931 248.267841,300.508138 248.225993,300.500597 C247.950151,300.450888 247.679068,300.426034 247.412737,300.426034 C246.613744,300.426034 245.971706,300.580128 245.486604,300.888322 C245.001501,301.196515 244.630546,301.549441 244.373726,301.94711 C244.116907,302.344779 243.945697,302.742442 243.860091,303.140111 C243.774485,303.53778 243.731682,303.836028 243.731682,304.034862 L243.731682,310.389525 C243.731682,311.113222 243.14501,311.699894 242.421313,311.699894 L241.617814,311.699894 C240.894117,311.699894 240.307445,311.113222 240.307445,310.389525 L240.307445,298.694251 C240.307445,297.970554 240.894117,297.383881 241.617814,297.383881 Z M253.20315,297.383881 L254.006648,297.383881 C254.730345,297.383881 255.317018,297.970554 255.317018,298.694251 L255.317018,310.389525 C255.317018,311.113222 254.730345,311.699894 254.006648,311.699894 L253.20315,311.699894 C252.479453,311.699894 251.89278,311.113222 251.89278,310.389525 L251.89278,298.694251 C251.89278,297.970554 252.479453,297.383881 253.20315,297.383881 Z M251.40768,292.522402 C251.40768,291.945782 251.612181,291.443732 252.021189,291.016238 C252.430198,290.588744 252.948584,290.375 253.576364,290.375 C254.204144,290.375 254.732042,290.578802 255.160073,290.986413 C255.588105,291.394024 255.802118,291.906015 255.802118,292.522402 C255.802118,293.138789 255.588105,293.65078 255.160073,294.058391 C254.732042,294.466002 254.204144,294.669804 253.576364,294.669804 C252.948584,294.669804 252.430198,294.45606 252.021189,294.028566 C251.612181,293.601072 251.40768,293.099022 251.40768,292.522402 Z M266.160522,300.655457 C265.465757,300.144608 264.847463,299.889183 264.30564,299.889183 C263.849073,299.889183 263.402024,300.008482 262.964481,300.247084 C262.526937,300.485685 262.308168,300.873407 262.308168,301.41026 C262.308168,301.847696 262.48889,302.165826 262.850339,302.364661 C263.211788,302.563495 263.668349,302.732502 264.220034,302.871686 C264.77172,303.01087 265.366199,303.155023 266.003491,303.304149 C266.640783,303.453275 267.235262,303.681931 267.786948,303.990125 C268.338633,304.298318 268.795194,304.720835 269.156643,305.257688 C269.518092,305.794541 269.698814,306.530218 269.698814,307.46474 C269.698814,308.319729 269.522848,309.040493 269.17091,309.627055 C268.818973,310.213616 268.362413,310.685841 267.801215,311.043743 C267.240018,311.401645 266.607492,311.660126 265.903617,311.819194 C265.199743,311.978262 264.495879,312.057794 263.792004,312.057794 C262.726681,312.057794 261.746978,311.898729 260.852868,311.580594 C260.502739,311.456014 260.082599,311.205662 259.592447,310.829537 L259.592456,310.829526 C259.018325,310.388958 258.91005,309.566383 259.350618,308.992252 C259.388137,308.943358 259.429059,308.897172 259.47308,308.854038 L259.82821,308.506031 C260.318404,308.025703 261.096164,308.004964 261.611259,308.458485 C261.818923,308.641325 261.998912,308.782307 262.151224,308.881429 C262.655351,309.209506 263.268854,309.373542 263.991752,309.373542 C264.239059,309.373542 264.495874,309.343717 264.762205,309.284067 C265.028536,309.224416 265.275839,309.125001 265.504123,308.985817 C265.732407,308.846632 265.917884,308.672655 266.060562,308.463879 C266.203239,308.255102 266.274576,308.011534 266.274576,307.733165 C266.274576,307.236079 266.093855,306.868241 265.732406,306.629639 C265.370956,306.391038 264.914396,306.197177 264.362711,306.048051 C263.811025,305.898926 263.216546,305.759743 262.579254,305.630501 C261.941962,305.501259 261.347482,305.292486 260.795797,305.004176 C260.244112,304.715865 259.787551,304.313232 259.426102,303.796262 C259.064653,303.279292 258.883931,302.563499 258.883931,301.64886 C258.883931,300.853522 259.040874,300.162582 259.354764,299.576021 C259.668654,298.989459 260.082412,298.507292 260.59605,298.129507 C261.109688,297.751721 261.699412,297.473357 262.365239,297.294406 C263.031066,297.115455 263.706395,297.025981 264.391246,297.025981 C265.30438,297.025981 266.20799,297.190017 267.1021,297.518094 C267.42586,297.636891 267.787033,297.856875 268.185621,298.178045 L268.185612,298.178056 C268.749129,298.632121 268.837857,299.457034 268.383792,300.020551 C268.346038,300.067405 268.305102,300.111603 268.261273,300.152832 L267.834593,300.5542 C267.374073,300.987402 266.669899,301.029994 266.160522,300.655457 Z M273.94832,297.383881 L274.580606,297.383881 C275.304303,297.383881 275.890976,297.970554 275.890976,298.694251 L275.890976,299.620758 C276.252424,298.944721 276.742276,298.343256 277.417615,297.816344 C278.092954,297.289433 279.001319,297.025981 280.142737,297.025981 C282.292407,297.025981 283.719159,297.910781 284.423033,299.680408 C284.917648,298.76577 285.535907,298.094713 286.277828,297.667219 C287.01975,297.239725 287.904336,297.025981 288.931612,297.025981 C289.844747,297.025981 290.615192,297.185046 291.242972,297.503181 C291.870752,297.821317 292.379627,298.258746 292.769611,298.815483 C293.159596,299.372219 293.44019,300.023392 293.611403,300.769022 C293.782615,301.514651 293.868221,302.314948 293.868221,303.169936 L293.868221,310.389525 C293.868221,311.113222 293.281548,311.699894 292.557851,311.699894 L291.754353,311.699894 C291.030656,311.699894 290.443983,311.113222 290.443983,310.389525 L290.443983,303.587487 C290.443983,303.150051 290.405937,302.727534 290.329842,302.319923 C290.253748,301.912312 290.120584,301.554416 289.930348,301.246222 C289.740112,300.938029 289.483296,300.69446 289.159895,300.515509 C288.836493,300.336558 288.417979,300.247084 287.904341,300.247084 C287.371679,300.247084 286.919875,300.35147 286.548914,300.560247 C286.177953,300.769023 285.873579,301.047387 285.635784,301.395347 C285.397988,301.743308 285.226778,302.140971 285.122148,302.588348 C285.017518,303.035726 284.965204,303.488068 284.965204,303.945387 L284.965204,310.389525 C284.965204,311.113222 284.378532,311.699894 283.654835,311.699894 L282.851336,311.699894 C282.127639,311.699894 281.540967,311.113222 281.540967,310.389525 L281.540967,303.169936 C281.540967,302.275181 281.360245,301.564358 280.998796,301.037447 C280.637347,300.510536 280.038111,300.247084 279.201072,300.247084 C278.630363,300.247084 278.150023,300.3465 277.760038,300.545334 C277.370054,300.744169 277.046657,301.012591 276.789838,301.35061 C276.533019,301.688628 276.347541,302.07635 276.233399,302.513786 C276.119258,302.951222 276.062188,303.408534 276.062188,303.885737 L276.062188,310.389525 C276.062188,311.113222 275.475515,311.699894 274.751818,311.699894 L273.94832,311.699894 C273.224623,311.699894 272.63795,311.113222 272.63795,310.389525 L272.63795,298.694251 C272.63795,297.970554 273.224623,297.383881 273.94832,297.383881 Z M299.401816,297.383881 L300.205314,297.383881 C300.929011,297.383881 301.515683,297.970554 301.515683,298.694251 L301.515683,310.389525 C301.515683,311.113222 300.929011,311.699894 300.205314,311.699894 L299.401816,311.699894 C298.678119,311.699894 298.091446,311.113222 298.091446,310.389525 L298.091446,298.694251 C298.091446,297.970554 298.678119,297.383881 299.401816,297.383881 Z M297.606346,292.522402 C297.606346,291.945782 297.810847,291.443732 298.219855,291.016238 C298.628863,290.588744 299.14725,290.375 299.77503,290.375 C300.40281,290.375 300.930707,290.578802 301.358739,290.986413 C301.786771,291.394024 302.000784,291.906015 302.000784,292.522402 C302.000784,293.138789 301.786771,293.65078 301.358739,294.058391 C300.930707,294.466002 300.40281,294.669804 299.77503,294.669804 C299.14725,294.669804 298.628863,294.45606 298.219855,294.028566 C297.810847,293.601072 297.606346,293.099022 297.606346,292.522402 Z M314.35724,300.894898 C314.216345,300.784632 314.09247,300.697936 313.985614,300.634809 C313.54807,300.376324 313.101021,300.247084 312.644454,300.247084 C312.016674,300.247084 311.455485,300.366383 310.960871,300.604984 C310.466256,300.843585 310.042987,301.161716 309.69105,301.559385 C309.339112,301.957054 309.072785,302.414366 308.892061,302.931336 C308.711336,303.448306 308.620976,303.985151 308.620976,304.541888 C308.620976,305.098624 308.711336,305.635469 308.892061,306.152439 C309.072785,306.669409 309.339112,307.126721 309.69105,307.52439 C310.042987,307.922059 310.466256,308.24019 310.960871,308.478791 C311.455485,308.717392 312.016674,308.836691 312.644454,308.836691 C313.177116,308.836691 313.671723,308.722363 314.12829,308.493704 C314.220594,308.447475 314.320771,308.384638 314.428821,308.305191 L314.428805,308.30517 C314.973782,307.904458 315.734204,307.984411 316.183921,308.489707 L316.704346,309.074395 C317.162482,309.58915 317.116583,310.377834 316.601827,310.83597 C316.538694,310.892159 316.470014,310.941789 316.396847,310.984093 C315.949792,311.242578 315.497987,311.451351 315.04142,311.610419 C314.584853,311.769486 314.147316,311.883815 313.728796,311.953407 C313.310276,312.022999 312.948832,312.057794 312.644454,312.057794 C311.617178,312.057794 310.646987,311.878846 309.733853,311.520944 C308.820718,311.163042 308.031249,310.656021 307.365422,309.999867 C306.699595,309.343714 306.171697,308.553358 305.781712,307.628778 C305.391728,306.704197 305.196738,305.675244 305.196738,304.541888 C305.196738,303.408531 305.391728,302.379578 305.781712,301.454997 C306.171697,300.530417 306.699595,299.740062 307.365422,299.083908 C308.031249,298.427754 308.820718,297.920733 309.733853,297.562831 C310.646987,297.204929 311.617178,297.025981 312.644454,297.025981 C313.519541,297.025981 314.399371,297.199958 315.28397,297.547919 C315.621073,297.68052 316.018781,297.917611 316.477092,298.259194 L316.4771,298.259184 C317.057368,298.691661 317.177176,299.512654 316.744698,300.092922 C316.712632,300.135947 316.677952,300.176962 316.640856,300.215734 L316.111602,300.768856 C315.646077,301.255421 314.887539,301.309918 314.35724,300.894898 Z" id="Logo-Dark-Version"></path>
        </g>
    </g>
</svg>