<!-- <svg xmlns="http://www.w3.org/2000/svg" viewBox="0 0 1440 320" preserveAspectRatio="none"><path fill="#fff" fill-opacity="1" d="M0,224L80,224C160,224,320,224,480,197.3C640,171,800,117,960,112C1120,107,1280,149,1360,170.7L1440,192L1440,320L1360,320C1280,320,1120,320,960,320C800,320,640,320,480,320C320,320,160,320,80,320L0,320Z"></path></svg> -->

<!-- <svg xmlns="http://www.w3.org/2000/svg" viewBox="0 0 1440 320" preserveAspectRatio="none"><path fill="#fff" fill-opacity="1" d="M0,224L40,224C80,224,160,224,240,192C320,160,400,96,480,101.3C560,107,640,181,720,181.3C800,181,880,107,960,96C1040,85,1120,139,1200,154.7C1280,171,1360,149,1400,138.7L1440,128L1440,320L1400,320C1360,320,1280,320,1200,320C1120,320,1040,320,960,320C880,320,800,320,720,320C640,320,560,320,480,320C400,320,320,320,240,320C160,320,80,320,40,320L0,320Z"></path></svg> -->

<!-- <svg xmlns="http://www.w3.org/2000/svg" viewBox="0 0 1440 320" preserveAspectRatio="none"><path fill="#fff" fill-opacity="1" d="M0,0L0,128L51.4,128L51.4,160L102.9,160L102.9,160L154.3,160L154.3,256L205.7,256L205.7,96L257.1,96L257.1,128L308.6,128L308.6,32L360,32L360,256L411.4,256L411.4,224L462.9,224L462.9,96L514.3,96L514.3,192L565.7,192L565.7,128L617.1,128L617.1,288L668.6,288L668.6,192L720,192L720,64L771.4,64L771.4,160L822.9,160L822.9,64L874.3,64L874.3,128L925.7,128L925.7,128L977.1,128L977.1,128L1028.6,128L1028.6,288L1080,288L1080,32L1131.4,32L1131.4,32L1182.9,32L1182.9,288L1234.3,288L1234.3,96L1285.7,96L1285.7,224L1337.1,224L1337.1,64L1388.6,64L1388.6,224L1440,224L1440,320L1388.6,320L1388.6,320L1337.1,320L1337.1,320L1285.7,320L1285.7,320L1234.3,320L1234.3,320L1182.9,320L1182.9,320L1131.4,320L1131.4,320L1080,320L1080,320L1028.6,320L1028.6,320L977.1,320L977.1,320L925.7,320L925.7,320L874.3,320L874.3,320L822.9,320L822.9,320L771.4,320L771.4,320L720,320L720,320L668.6,320L668.6,320L617.1,320L617.1,320L565.7,320L565.7,320L514.3,320L514.3,320L462.9,320L462.9,320L411.4,320L411.4,320L360,320L360,320L308.6,320L308.6,320L257.1,320L257.1,320L205.7,320L205.7,320L154.3,320L154.3,320L102.9,320L102.9,320L51.4,320L51.4,320L0,320L0,320Z"></path></svg> -->


<!-- <svg xmlns="http://www.w3.org/2000/svg" viewBox="0 0 1440 320" preserveAspectRatio="none"><path fill="#fff" fill-opacity="1" d="M0,192L60,186.7C120,181,240,171,360,160C480,149,600,139,720,154.7C840,171,960,213,1080,202.7C1200,192,1320,128,1380,96L1440,64L1440,320L1380,320C1320,320,1200,320,1080,320C960,320,840,320,720,320C600,320,480,320,360,320C240,320,120,320,60,320L0,320Z"></path></svg> -->

<!-- <svg xmlns="http://www.w3.org/2000/svg" viewBox="0 0 1440 320" preserveAspectRatio="none"><path fill="#fff" fill-opacity="1" d="M0,192L0,224L205.7,224L205.7,288L411.4,288L411.4,288L617.1,288L617.1,256L822.9,256L822.9,160L1028.6,160L1028.6,160L1234.3,160L1234.3,256L1440,256L1440,320L1234.3,320L1234.3,320L1028.6,320L1028.6,320L822.9,320L822.9,320L617.1,320L617.1,320L411.4,320L411.4,320L205.7,320L205.7,320L0,320L0,320Z"></path></svg> -->

<svg xmlns="http://www.w3.org/2000/svg" viewBox="0 0 1440 320" preserveAspectRatio="none"><path fill="#fff" fill-opacity="1" d="M0,224L60,197.3C120,171,240,117,360,133.3C480,149,600,235,720,245.3C840,256,960,192,1080,154.7C1200,117,1320,107,1380,101.3L1440,96L1440,320L1380,320C1320,320,1200,320,1080,320C960,320,840,320,720,320C600,320,480,320,360,320C240,320,120,320,60,320L0,320Z"></path></svg>
